# xmcd
#
# Track frame offsets:
#	150
#	17095
#	32091
#	51603
#	72638
#	84932
#	102349
#	115455
#	137158
#	153688
#	168891
#	183343
#	200126
#	215975
#	231614
#	246816
#	261112
#	274647
#	290419
#	313447
#	333018
#
# Disc length: 4589 seconds
#
# Revision: 1
# Processed by: cddbd v1.5.1PL0 Copyright (c) Steve Scherf et al.
# Submitted via: audiograbber 1.83.01
#
DISCID=4f11eb15
DTITLE=Mary Cutrufello And The Havoline Supremes - Who To Love and When Toe Leave
DYEAR=1992
DGENRE=Country
TTITLE0=Miss You #3
TTITLE1=All The Millers In Milwaukee
TTITLE2=You'll Be Over Her (Befor I'm Even Over You)
TTITLE3=Just The Whiskey Talkin'
TTITLE4=Need Somebody To Love
TTITLE5=Lookin' Forward To Missin' You
TTITLE6=Make Me Cry
TTITLE7=Sworn To Pride
TTITLE8=Johnson Motel
TTITLE9=Lovin' Youn Beats All Ive Ever Seen
TTITLE10=A Promise I Made
TTITLE11=Man That He's Become
TTITLE12=I Didn't Even Get To Lose You
TTITLE13=Sweet Promise Of Love
TTITLE14=Legend Of The Horseshoe Lounge
TTITLE15=Dallas
TTITLE16=Walk Of Shame
TTITLE17=Black Maria
TTITLE18=Thunderbird Town
TTITLE19=Sad Songs And Waltzes Revisited
TTITLE20=Love's To Blame
EXTD=
EXTT0=
EXTT1=
EXTT2=
EXTT3=
EXTT4=
EXTT5=
EXTT6=
EXTT7=
EXTT8=
EXTT9=
EXTT10=
EXTT11=
EXTT12=
EXTT13=
EXTT14=
EXTT15=
EXTT16=
EXTT17=
EXTT18=
EXTT19=
EXTT20=
PLAYORDER=
